<?xml version="1.0" encoding="UTF-8" standalone="no"?>
<!-- Created with Inkscape (http://www.inkscape.org/) -->

<svg
   xmlns:dc="http://purl.org/dc/elements/1.1/"
   xmlns:cc="http://creativecommons.org/ns#"
   xmlns:rdf="http://www.w3.org/1999/02/22-rdf-syntax-ns#"
   xmlns:svg="http://www.w3.org/2000/svg"
   xmlns="http://www.w3.org/2000/svg"
   xmlns:sodipodi="http://sodipodi.sourceforge.net/DTD/sodipodi-0.dtd"
   xmlns:inkscape="http://www.inkscape.org/namespaces/inkscape"
  width="150.90387mm" height="150.068558mm"
   viewBox="0 0 302.90387 75.068558"
   version="1.1"
   id="svg8"
   inkscape:version="0.92.4 (5da689c313, 2019-01-14)"
   sodipodi:docname="saxonbotlogo.svg">
  <defs
     id="defs2">
    <inkscape:path-effect
       effect="bspline"
       id="path-effect5397"
       is_visible="true"
       weight="33.333333"
       steps="2"
       helper_size="0"
       apply_no_weight="true"
       apply_with_weight="true"
       only_selected="false" />
  </defs>
  <sodipodi:namedview
     id="base"
     pagecolor="#ffffff"
     bordercolor="#666666"
     borderopacity="1.0"
     inkscape:pageopacity="0.0"
     inkscape:pageshadow="2"
     inkscape:zoom="0.35"
     inkscape:cx="1052.0819"
     inkscape:cy="284.88533"
     inkscape:document-units="mm"
     inkscape:current-layer="layer1"
     showgrid="false"
     fit-margin-top="0"
     fit-margin-left="0"
     fit-margin-right="0"
     fit-margin-bottom="0"
     inkscape:window-width="1366"
     inkscape:window-height="705"
     inkscape:window-x="-8"
     inkscape:window-y="-8"
     inkscape:window-maximized="1" />
  <metadata
     id="metadata5">
    <rdf:RDF>
      <cc:Work
         rdf:about="">
        <dc:format>image/svg+xml</dc:format>
        <dc:type
           rdf:resource="http://purl.org/dc/dcmitype/StillImage" />
        <dc:title></dc:title>
      </cc:Work>
    </rdf:RDF>
  </metadata>
  <g
     inkscape:label="Layer 1"
     inkscape:groupmode="layer"
     id="layer1"
     transform="translate(171.41639,-118.90259)">
    <path
       style="fill:#404041;fill-opacity:1;stroke-width:1.14742768"
       d="m -144.07599,185.06064 c 4.30554,-8.62563 4.67488,-16.23581 1.26847,-26.1367 -4.13361,-12.01455 -2.38345,-20.99929 5.5603,-28.54476 l 3.47561,-3.30135 -2.29625,4.64113 c -3.79107,7.66243 -3.95585,15.48826 -0.54867,26.05755 1.62753,5.04868 2.95439,10.72845 2.94859,12.62171 -0.0158,5.14621 -3.67855,12.05574 -9.12384,17.21141 l -4.84754,4.58971 z m 24.39758,-23.26241 c -4.79901,-1.1346 -5.6916,-2.0307 -6.61332,-6.63929 l -0.73866,-3.69328 h 5.38882 c 3.31833,0 6.06657,0.67776 7.1528,1.76399 1.37286,1.37286 3.96255,1.69089 11.67918,1.43429 9.04033,-0.30062 9.91518,-0.53219 9.91518,-2.62457 0,-2.12826 -1.04119,-2.35501 -14.34285,-3.12358 -13.49439,-0.7797 -14.49557,-1.00409 -16.92456,-3.79313 -2.84488,-3.26657 -3.21095,-6.42606 -1.35981,-11.73626 1.86319,-5.34474 5.51586,-6.25199 23.43559,-5.82093 14.90289,0.35849 15.82315,0.51718 17.90136,3.08675 1.204958,1.48986 2.190834,3.94248 2.190834,5.45028 0,2.5168 -0.46008,2.74146 -5.614374,2.74146 -3.93207,0 -5.81228,-0.51573 -6.27484,-1.72115 -0.51517,-1.3425 -2.79912,-1.72114 -10.3819,-1.72114 -5.76268,0 -10.03537,0.50797 -10.49237,1.24741 -1.72309,2.78802 2.27985,3.93223 15.70706,4.48973 12.78586,0.53087 13.98152,0.77601 16.010799,3.28254 2.403612,2.96891 2.950945,10.36875 1.032124,13.9541 -0.638512,1.19307 -3.091143,2.70528 -5.450283,3.36045 -4.92681,1.36827 -26.52043,1.41004 -32.22078,0.0623 z m 39.985734,0.28114 c 0.0034,-0.47332 4.280018,-8.34754 9.503433,-17.49828 l 9.497117,-16.6377 h 7.37469 7.374689 l 8.889375,15.38328 c 4.889155,8.4608 9.298961,15.77314 9.799572,16.24965 0.500611,0.47651 4.65983,-2.5734 9.242725,-6.77757 l 8.332528,-7.64394 -8.138521,-8.89257 -8.13851,-8.89256 7.264262,-4.2e-4 7.264272,-4.2e-4 5.358247,6.02442 5.358246,6.02441 6.152117,-6.024 c 6.135021,-6.00726 6.172645,-6.02399 13.545591,-6.02399 h 7.393473 l -8.549163,8.60661 -8.5491732,8.60661 9.1246772,9.17852 9.124689,9.17852 h -7.750667 -7.750668 l -5.9142092,-6.35445 -5.9142208,-6.35445 -6.421453,6.35445 -6.421453,6.35445 h -12.845831 -12.84582 l -1.780073,-3.44229 -1.780074,-3.44228 h -11.415345 -11.415345 l -1.780073,3.44228 c -1.615922,3.12485 -2.306411,3.44229 -7.487746,3.44229 -3.13922,0 -5.704831,-0.38726 -5.701358,-0.86057 z m 33.269088,-13.60003 c 0,-1.10007 -6.249625,-11.92791 -6.884566,-11.92791 -0.63494,0 -6.884566,10.82784 -6.884566,11.92791 0,0.38031 3.098055,0.69146 6.884566,0.69146 3.786512,0 6.884566,-0.31115 6.884566,-0.69146 z m 81.896813,13.66951 c -1.341515,-0.26322 -3.665056,-1.78375 -5.163424,-3.37896 -2.496378,-2.65773 -2.706438,-3.77543 -2.510824,-13.35949 0.117427,-5.75251 0.853548,-11.65508 1.635853,-13.11682 2.191426,-4.09472 7.977078,-5.14955 25.947195,-4.73066 20.921198,0.48768 21.355568,0.79949 21.938186,15.74861 0.49072,12.59145 -1.174954,16.64555 -7.568582,18.42115 -4.080574,1.13324 -29.077045,1.43671 -34.278404,0.41617 z m 29.174187,-9.76525 c 0.757302,-0.7573 1.376913,-4.38448 1.376913,-8.06039 0,-6.23169 -0.213295,-6.76558 -3.155426,-7.898 -1.735485,-0.66798 -7.203023,-1.03654 -12.1501,-0.81902 -10.345369,0.45487 -12.232738,1.88508 -12.232738,9.26964 0,8.28233 0.920684,8.88469 13.580013,8.88469 7.184653,0 11.698415,-0.494 12.581338,-1.37692 z m 17.4409,-7.21108 v -17.89937 l 8.884223,0.33512 8.884219,0.33512 10.335186,12.82895 10.3352,12.82894 0.32327,-13.1158 0.32327,-13.1158 h 5.15689 5.1569 l -0.31674,17.49827 -0.31675,17.49827 -8.55919,0.34198 c -7.32195,0.29254 -8.81472,0.0225 -10.32685,-1.86803 -0.97221,-1.2155 -5.64022,-7.00744 -10.37336,-12.87098 l -8.605706,-10.66098 -0.57371,12.52901 -0.57372,12.529 -4.876564,0.35283 -4.876568,0.35284 z m -236.432842,14.95565 c -12.94657,-4.7696 -17.22257,-9.1534 -17.06783,-17.49809 l 0.0808,-4.35984 1.63224,4.58971 c 0.89773,2.52434 3.41902,6.17268 5.60287,8.10742 4.15112,3.67761 15.37408,10.23785 16.16366,9.44827 0.25134,-0.25134 -2.69142,-2.74971 -6.53948,-5.55194 -3.84806,-2.80223 -8.2831,-6.78181 -9.85564,-8.84353 -3.69571,-4.84532 -4.61762,-12.44487 -2.10025,-17.31292 1.03312,-1.99783 2.03671,-3.63243 2.23019,-3.63243 0.19349,0 0.13466,2.7108 -0.13072,6.024 -0.54802,6.84179 1.34802,10.38536 12.08109,22.57875 7.22678,8.21005 6.74037,9.70634 -2.09698,6.4506 z m 3.76739,-7.80194 c -9.7427,-12.74093 -11.52809,-19.81106 -7.16333,-28.36669 3.09904,-6.07463 4.70857,-6.81023 3.23645,-1.47916 -2.04437,7.40341 -0.4803,16.39204 4.62831,26.59875 2.55219,5.0991 4.47488,9.2711 4.27266,9.2711 -0.20222,0 -2.44056,-2.7108 -4.97409,-6.024 z"
       id="path1120"
       inkscape:connector-curvature="0" />
    <path
       style="fill:none;stroke:#000000;stroke-width:1.56500006;stroke-linecap:butt;stroke-linejoin:miter;stroke-miterlimit:4;stroke-dasharray:none;stroke-opacity:1"
       d="m -123.97619,191.92262 c 84.918915,0 169.837564,0 254.75595,0"
       id="path5395"
       inkscape:connector-curvature="0"
       inkscape:path-effect="#path-effect5397"
       inkscape:original-d="m -123.97619,191.92262 c 84.918915,-2.7e-4 169.837564,-2.7e-4 254.75595,0"
       transform="translate(0,-21.695841)" />
    <g
       aria-label="claims.bot"
       transform="matrix(0.46714883,0,0,0.46714883,-22.50775,-194.07244)"
       style="font-style:normal;font-weight:normal;font-size:40px;line-height:1.25;font-family:sans-serif;letter-spacing:0px;word-spacing:0px;fill:#000000;fill-opacity:1;stroke:none"
       id="flowRoot5967">
      <path
         d="m 107.1569,830.64289 q -3.0625,0 -5.60417,-0.72917 -2.520829,-0.72916 -4.395829,-2.25 -1.854167,-1.52083 -2.875,-3.83333 -1.020833,-2.3125 -1.020833,-5.41667 0,-3.27083 1.083333,-5.64583 1.104167,-2.375 3.0625,-3.9375 1.895834,-1.47917 4.374999,-2.16667 2.47917,-0.6875 5.14583,-0.6875 2.39584,0 4.41667,0.52084 2.02084,0.52083 3.77084,1.35416 v 6.39584 h -1.0625 q -0.4375,-0.375 -1.0625,-0.875 -0.60417,-0.5 -1.50001,-0.97917 -0.85416,-0.45833 -1.875,-0.75 -1.02083,-0.3125 -2.375,-0.3125 -3,0 -4.625,1.91667 -1.60416,1.89583 -1.60416,5.16666 0,3.375 1.64583,5.125 1.66667,1.75 4.70833,1.75 1.41667,0 2.54167,-0.3125 1.14583,-0.33333 1.89583,-0.77083 0.70834,-0.41667 1.25001,-0.875 0.54166,-0.45833 1,-0.89583 h 1.0625 v 6.39583 q -1.77084,0.83333 -3.70834,1.3125 -1.91667,0.5 -4.25,0.5 z"
         style="font-style:normal;font-variant:normal;font-weight:bold;font-stretch:normal;font-size:42.66666794px;font-family:sans-serif;-inkscape-font-specification:'sans-serif Bold'"
         id="path5981" />
      <path
         d="m 127.55274,830.01789 h -7.5 v -32.41667 h 7.5 z"
         style="font-style:normal;font-variant:normal;font-weight:bold;font-stretch:normal;font-size:42.66666794px;font-family:sans-serif;-inkscape-font-specification:'sans-serif Bold'"
         id="path5983" />
      <path
         d="m 148.80274,823.91372 v -4.875 q -1.52084,0.125 -3.29167,0.35417 -1.77083,0.20833 -2.6875,0.5 -1.125,0.35417 -1.72917,1.04167 -0.58333,0.66666 -0.58333,1.77083 0,0.72917 0.125,1.1875 0.125,0.45833 0.625,0.875 0.47917,0.41667 1.14583,0.625 0.66667,0.1875 2.08334,0.1875 1.125,0 2.27083,-0.45833 1.16667,-0.45834 2.04167,-1.20834 z m 0,3.625 q -0.60417,0.45834 -1.5,1.10417 -0.89584,0.64583 -1.6875,1.02083 -1.10417,0.5 -2.29167,0.72917 -1.1875,0.25 -2.60417,0.25 -3.33333,0 -5.58333,-2.0625 -2.25,-2.0625 -2.25,-5.27083 0,-2.5625 1.14583,-4.1875 1.14584,-1.625 3.25,-2.5625 2.08334,-0.9375 5.16667,-1.33334 3.08333,-0.39583 6.39583,-0.58333 v -0.125 q 0,-1.9375 -1.58333,-2.66667 -1.58333,-0.75 -4.66667,-0.75 -1.85416,0 -3.95833,0.66667 -2.10417,0.64583 -3.02083,1 h -0.6875 v -5.64583 q 1.1875,-0.3125 3.85416,-0.72917 2.6875,-0.4375 5.375,-0.4375 6.39584,0 9.22917,1.97917 2.85417,1.95833 2.85417,6.16666 v 15.91667 h -7.4375 z"
         style="font-style:normal;font-variant:normal;font-weight:bold;font-stretch:normal;font-size:42.66666794px;font-family:sans-serif;-inkscape-font-specification:'sans-serif Bold'"
         id="path5985" />
      <path
         d="m 170.63607,830.01789 h -7.5 v -23.39583 h 7.5 z m 0.20834,-26.72917 h -7.91667 v -5.6875 h 7.91667 z"
         style="font-style:normal;font-variant:normal;font-weight:bold;font-stretch:normal;font-size:42.66666794px;font-family:sans-serif;-inkscape-font-specification:'sans-serif Bold'"
         id="path5987" />
      <path
         d="m 200.5944,813.43456 v 16.58333 h -7.54167 v -11.6875 q 0,-1.70833 -0.0833,-2.89583 -0.0833,-1.20834 -0.45833,-1.95834 -0.375,-0.75 -1.14584,-1.08333 -0.75,-0.35417 -2.125,-0.35417 -1.10416,0 -2.14583,0.45834 -1.04167,0.4375 -1.875,0.9375 v 16.58333 h -7.5 v -23.39583 h 7.5 v 2.58333 q 1.9375,-1.52083 3.70833,-2.375 1.77084,-0.85417 3.91667,-0.85417 2.3125,0 4.08334,1.04167 1.77083,1.02083 2.77083,3.02083 2.25,-1.89583 4.375,-2.97916 2.125,-1.08334 4.16667,-1.08334 3.79166,0 5.75,2.27084 1.97916,2.27083 1.97916,6.54166 v 15.22917 h -7.54166 v -11.6875 q 0,-1.72917 -0.0833,-2.91667 -0.0625,-1.1875 -0.4375,-1.9375 -0.35416,-0.75 -1.125,-1.08333 -0.77083,-0.35417 -2.16666,-0.35417 -0.9375,0 -1.83334,0.33334 -0.89583,0.3125 -2.1875,1.0625 z"
         style="font-style:normal;font-variant:normal;font-weight:bold;font-stretch:normal;font-size:42.66666794px;font-family:sans-serif;-inkscape-font-specification:'sans-serif Bold'"
         id="path5989" />
      <path
         d="m 243.21941,822.60122 q 0,3.625 -3.25,5.85417 -3.25,2.20833 -8.89584,2.20833 -3.125,0 -5.66666,-0.58333 -2.54167,-0.58333 -4.08334,-1.29167 v -6.16666 h 0.6875 q 0.5625,0.39583 1.29167,0.875 0.75,0.45833 2.10417,1 1.16666,0.47916 2.64583,0.83333 1.47917,0.33333 3.16667,0.33333 2.20833,0 3.27083,-0.47916 1.0625,-0.5 1.0625,-1.45834 0,-0.85416 -0.625,-1.22916 -0.625,-0.39584 -2.375,-0.75 -0.83333,-0.1875 -2.27083,-0.39584 -1.41667,-0.22916 -2.58334,-0.54166 -3.1875,-0.83334 -4.72916,-2.58334 -1.54167,-1.77083 -1.54167,-4.39583 0,-3.375 3.1875,-5.60417 3.20833,-2.25 8.75,-2.25 2.625,0 5.02083,0.54167 2.41667,0.52083 3.77084,1.125 v 5.91667 h -0.64584 q -1.66666,-1.14584 -3.8125,-1.85417 -2.125,-0.72917 -4.3125,-0.72917 -1.8125,0 -3.0625,0.5 -1.22916,0.5 -1.22916,1.41667 0,0.83333 0.5625,1.27083 0.5625,0.4375 2.64583,0.875 1.14583,0.22917 2.45833,0.45834 1.33334,0.20833 2.66667,0.54166 2.95833,0.77084 4.375,2.4375 1.41667,1.64584 1.41667,4.125 z"
         style="font-style:normal;font-variant:normal;font-weight:bold;font-stretch:normal;font-size:42.66666794px;font-family:sans-serif;-inkscape-font-specification:'sans-serif Bold'"
         id="path5991" />
      <path
         d="m 254.28711,830.01789 h -4.66797 v -5.5664 h 4.66797 z"
         style=""
         id="path5993" />
      <path
         d="m 282.02148,818.94367 q 0,2.73438 -0.78125,4.92188 -0.76171,2.1875 -2.07031,3.67187 -1.38672,1.54297 -3.04687,2.32422 -1.66016,0.76172 -3.65235,0.76172 -1.85547,0 -3.24218,-0.44922 -1.38672,-0.42969 -2.73438,-1.17187 l -0.23437,1.01562 h -3.4375 v -30.39062 h 3.67187 v 10.85937 q 1.54297,-1.26953 3.28125,-2.07031 1.73828,-0.82031 3.90625,-0.82031 3.86719,0 6.09375,2.96875 2.24609,2.96875 2.24609,8.3789 z m -3.78906,0.0977 q 0,-3.90625 -1.28906,-5.91797 -1.28906,-2.03125 -4.16016,-2.03125 -1.60156,0 -3.24218,0.70313 -1.64063,0.68359 -3.04688,1.77734 v 12.5 q 1.5625,0.70312 2.67578,0.97656 1.13281,0.27344 2.5586,0.27344 3.04687,0 4.76562,-1.99219 1.73828,-2.01172 1.73828,-6.28906 z"
         style=""
         id="path5995" />
      <path
         d="m 307.81836,818.39289 q 0,5.6875 -2.91667,8.97917 -2.91666,3.29166 -7.8125,3.29166 -4.9375,0 -7.85416,-3.29166 -2.89584,-3.29167 -2.89584,-8.97917 0,-5.6875 2.89584,-8.97917 2.91666,-3.3125 7.85416,-3.3125 4.89584,0 7.8125,3.3125 2.91667,3.29167 2.91667,8.97917 z m -4.04167,0 q 0,-4.52083 -1.77083,-6.70833 -1.77083,-2.20834 -4.91667,-2.20834 -3.1875,0 -4.95833,2.20834 -1.75,2.1875 -1.75,6.70833 0,4.375 1.77083,6.64583 1.77084,2.25 4.9375,2.25 3.125,0 4.89584,-2.22916 1.79166,-2.25 1.79166,-6.66667 z"
         style="font-size:42.66666794px"
         id="path5997" />
      <path
         d="m 325.98503,829.80956 q -1.10417,0.29166 -2.41667,0.47916 -1.29166,0.1875 -2.3125,0.1875 -3.5625,0 -5.41666,-1.91666 -1.85417,-1.91667 -1.85417,-6.14584 v -12.375 h -2.64583 v -3.29166 h 2.64583 v -6.6875 h 3.91667 v 6.6875 h 8.08333 v 3.29166 h -8.08333 v 10.60417 q 0,1.83333 0.0833,2.875 0.0833,1.02083 0.58333,1.91667 0.45834,0.83333 1.25,1.22916 0.8125,0.375 2.45834,0.375 0.95833,0 2,-0.27083 1.04166,-0.29167 1.5,-0.47917 h 0.20833 z"
         style="font-size:42.66666794px"
         id="path5999" />
    </g>
  </g>
</svg>
